<svg xmlns="http://www.w3.org/2000/svg" viewBox="0 0 267.3 129.29"><defs><style>.cls-1{fill:#fff;}</style></defs><g id="Capa_2" data-name="Capa 2"><g id="Capa_1-2" data-name="Capa 1"><path class="cls-1" d="M159.71,92.73a28,28,0,0,1-21.45-9.6c-2.38-2.62-2.32-2.55-4.67,0a28.71,28.71,0,1,1-40.32-40.7c2.82-2.43,2.76-2.49.47-5.58a46.62,46.62,0,0,1-7.28-14.75c-.2-.68-.79-1.57,0-2.06s1.16.49,1.63.92c6.93,6.25,15,10.27,23.88,13A80.28,80.28,0,0,0,144.1,36.9c14.61-1.46,28.18-6,39.22-16.35.37-.35.73-1,1.32-.66s.33,1.09.18,1.62a44.39,44.39,0,0,1-8.14,16.06c-1.32,1.65-1.27,2.42.47,3.72,14.23,10.59,15,32,1.75,44.07A27.25,27.25,0,0,1,159.71,92.73ZM112,82.57c9.24.92,18.92-7.81,18.67-18.79a18.78,18.78,0,0,0-37.55.14C93,74.19,101.74,83.35,112,82.57Zm47.73,0c9.77,1,18.74-8.6,18.69-18.55-.06-9.73-8.89-19-18.79-18.75C149.6,45.52,141,53.9,141,64.12,141,73.74,149.41,83.44,159.77,82.57Z"/><path class="cls-1" d="M35.11,58.64c1-1.3,1.8-2.22,2.5-3.19.89-1.21,1.78-1.2,2.41.1a69.2,69.2,0,0,1,3.89,8.67c1.5,4.6-.55,8.73-5.11,10.69,2.12,1.67,3.93,3.5,6.78,4.71-1.86-5.12-.69-9.47,1.51-13.68,1.11-2.13,1.76-2.36,3.5-.61,5.38,5.36,7.7,11,2.59,18.6,4.68,2.11,9.38,4.12,14.49,5,.29,0,.58.15.87.23,1,.31,1.85.86,1.64,2.08s-1.34,1.5-2.3,1.22c-3.54-1-7.25-1.52-10.67-3-.28-.12-.54-.28-.82-.4-1.46-.6-3-1.75-4.37-1.66-1.58.1-1.6,2.33-2.45,3.53-2.09,2.94-5.64,4.21-9.69,3.36a30.25,30.25,0,0,1-10.64-4.93c-1.81-1.21-1.73-1.86.11-3.18a37.85,37.85,0,0,1,7.87-4c.6-.25,1.49-.11,1.66-.94.11-.6-.59-.8-1-1.11-.85-.65-1.38-.06-1.92.51C33.79,83,31,83.31,28,83a7,7,0,0,1-3-1,43.43,43.43,0,0,1-9-7.18c-1.05-1.09-.93-1.83.47-2.33s2.85-.94,4.38-1.62a17.3,17.3,0,0,1-8.65-4.82c-1.83-1.79-2.92-4-4.17-6.18-1.39-2.38-.87-3.15,2-3.28l1.14-.06c0-.18,0-.38,0-.4-5.21-2.52-7.39-7.35-9.36-12.31-1.08-2.75-.51-3.39,2.45-3.11.74.07,1.45.51,2.24.2.23-.88-.6-1.13-1-1.6A22.61,22.61,0,0,1,0,26.21c-.11-2,.61-2.49,2.49-1.75a14.78,14.78,0,0,1,5.44,3.19c.38.41.9,1.4,1.59.63s.14-1.48-.49-2a9.34,9.34,0,0,1-2.67-4.37c-1.2-3.14-.21-6,.9-8.78a18,18,0,0,1,4.56-6.44c.83-.78,1.52-.94,2.13.24a28.84,28.84,0,0,1,3.62,11.8A8.81,8.81,0,0,1,15,25.54c-1.54,1.56-1.51,3.08-.6,5.43.91-4.22,4.14-5.67,6.91-7.57,1.37-.94,2.07-.54,2.19,1.1a45.2,45.2,0,0,1-.71,9.93,6.07,6.07,0,0,1-4.37,5.11C16,40.16,16.27,41.35,17,43c.26.6.58,1.17,1,2.05a16.45,16.45,0,0,1,7.4-9.93c1.13-.69,1.9-.56,2.23.71,1,4,1.45,8.05.06,12.05a6.62,6.62,0,0,1-5.06,4.73c-.94.19-1.18.54-.66,1.35a30.51,30.51,0,0,0,2.46,3.47c-.09-4.6,3.47-7.15,5.5-10.5.87-1.44,1.93-1.34,2.56.35A45.23,45.23,0,0,1,35.11,58.64Z"/><path class="cls-1" d="M232.19,58.69a38.74,38.74,0,0,1,2.42-11.2c.21-.65.35-1.43,1.16-1.53A1.68,1.68,0,0,1,237.38,47c1.8,3.21,4.86,5.66,5.56,9.69,1.39-.7,1.66-2,2.32-2.91.49-.69.09-1-.64-1.25-4.33-1.7-5.62-3.64-5.57-8.22,0-2.42,0-4.86.22-7.26.27-2.61,1-2.9,3.15-1.48a15.5,15.5,0,0,1,6.23,7.85c.15.41.15.92.8,1.19.79-.92.78-2.18,1.2-3.26.3-.79,0-1.24-.86-1.49-3.55-1-5.14-3.3-5.42-7.12-.2-2.68-.81-5.35-.69-8.08.09-2.05.52-2.31,2.32-1.23,2.79,1.67,5.45,3.51,6.84,6.93.83-1.58,1.12-2.85.07-3.91-4.67-4.75-3.5-10.06-1.56-15.45.36-1,.83-1.95,1.27-2.91,1.16-2.54,1.88-2.75,3.57-.65,3.13,3.86,5.87,7.92,4.89,13.36a7.65,7.65,0,0,1-2.56,4.9,2.53,2.53,0,0,0-.81,3.26,18.71,18.71,0,0,1,6.55-4.39c2.49-.85,3.28-.43,3,2.22-.6,5.36-3,9.9-6.74,14,1.23.48,2.29-.17,3.34-.16,2.41,0,2.79.42,1.89,2.63-2.06,5.08-4.2,10.12-9.53,12.73.18.27.25.48.34.49,3.91.49,4.13.92,2.12,4.44-2.8,4.9-6.4,8.81-12.93,9.87,2,.68,3.42,1.12,4.81,1.62s1.63,1.25.62,2.37a28.68,28.68,0,0,1-9.63,7.45c-3.41,1.47-7.05,1.44-10-1.38-1.48-1.43-2.43-1-3.73.56a36.88,36.88,0,0,1,6.91,2.81c1.6.95,4.1,1.5,4.17,3.44s-2.44,2.59-4,3.51c-3.1,1.8-6.35,3.25-10,3.21s-6.77-1.55-8.09-5.35c-.62-1.78-1.45-2.26-3.18-1.28-4.33,2.48-9.22,3.31-14,4.55-1.06.28-2.3.35-2.59-1.05-.32-1.56.84-2.14,2.13-2.37a57.61,57.61,0,0,0,14.92-5.08,12.36,12.36,0,0,1-2.82-8.81c.45-4.33,2.87-7.54,6-10.29,1.13-1,2-.58,2.51.6,1.89,4.41,4.68,8.7,2,13.92,2.55-.93,4.4-2.7,6.44-4.38-5-2.33-6.77-7.37-4.43-12.19,1-2.1,2-4.24,3-6.37,1.05-2.29,1.63-2.36,3.25-.35C230.67,56.75,231.25,57.51,232.19,58.69Z"/><path class="cls-1" d="M136.08,124.31h96.47a22.17,22.17,0,0,1,2.94.11,2.18,2.18,0,0,1,2,2.1A2.13,2.13,0,0,1,235.7,129a16,16,0,0,1-2.92.29q-96.71,0-193.39,0a18.27,18.27,0,0,1-3.38-.34,2.1,2.1,0,0,1-1.94-2.16A2.29,2.29,0,0,1,36,124.54a14.31,14.31,0,0,1,2.93-.22Z"/><path class="cls-1" d="M98.66,11l16-5.39c4.8-1.6,9.65-3,14.38-4.83a12.66,12.66,0,0,1,9,.13c9.2,3.15,18.46,6.11,27.69,9.18.75.24,1.89.35,1.91,1.31,0,.81-1.07.93-1.75,1.2l-30,11.6a6.38,6.38,0,0,1-4.84.06q-15.09-5.84-30.21-11.61A3.47,3.47,0,0,1,98.66,11Z"/><path class="cls-1" d="M135.58,35a78.26,78.26,0,0,1-19.75-2.24c-1.39-.37-2.09-1-2.07-2.45,0-2.8,0-5.6,0-8.4,0-1.65.57-2.17,2.24-1.51,5.2,2.05,10.45,4,15.65,6a4.13,4.13,0,0,0,3.25.11c5.21-2,10.47-3.93,15.66-6,1.92-.75,2.46-.15,2.43,1.72-.06,2.94-.09,5.9,0,8.85.05,1.72-.68,2.31-2.32,2.64A82.37,82.37,0,0,1,135.58,35Z"/><path class="cls-1" d="M136,84.59a6.19,6.19,0,0,1,.94.69c2.3,2.49,4.58,5,6.88,7.49a1.49,1.49,0,0,1,.16,2c-2.39,4-4.75,8-7.12,12.06-.64,1.09-1.33,1.19-2,.08q-3.57-5.89-7.09-11.82a2,2,0,0,1,.28-2.52c2.31-2.49,4.63-4.95,7-7.41A4.8,4.8,0,0,1,136,84.59Z"/><path class="cls-1" d="M110.51,72.59c-3.92,0-7.79-4.59-6.88-9.79.24-1.42.65-2.12,2.35-1.84,2.21.35,3.43-1.06,2.88-3.25-.37-1.45.39-1.78,1.43-2a7.8,7.8,0,0,1,8,2.56c2.2,2.59,3.1,5.58,1.76,8.86C118.59,70.7,115.94,72.66,110.51,72.59Z"/><path class="cls-1" d="M159.73,72.61a8.09,8.09,0,0,1-7.85-5c-1.66-3.34-1-6.54,1.39-9.27a8,8,0,0,1,7.94-2.72c1.32.26,1.92.76,1.75,2.28-.25,2.3.6,3.28,2.76,3,2-.26,2.37.81,2.56,2.28C168.87,67.66,164.78,73.19,159.73,72.61Z"/></g></g></svg>